# File created by Blade
# Date/Time:  Tue Sep 30 19:29:03 2014
#---------------------------------------------------------
:version 1.10
:name HOM
:units
  mass 1.0
  length 1.000000
  angle deg
:documentation
     Acclaim Skeleton File
:root
   axis xyz
   order TX TY TZ RX RY RZ
   position 0.000000 0.000000 0.000000
   orientation 0 0 0
:bonedata
   begin
      id 1
      name RightUpLeg_dum
      direction -1.000000 0.000000 0.000000
      length 3.766986
      axis 0.0 0.0 0.0 xyz
   end
   begin
      id 2
      name LeftUpLeg_dum
      direction 1.000000 0.000000 0.000000
      length 3.766986
      axis 0.0 0.0 0.0 xyz
   end
   begin
      id 3
      name Spine_dum
      direction 0.000000 1.000000 0.000000
      length 7.779697
      axis 0.0 0.0 0.0 xyz
   end
   begin
      id 4
      name RightUpLeg
      direction 0.000000 -1.000000 0.000000
      length 18.017682
      axis 0.0 0.0 0.0 xyz
      dof rx ry rz
   end
   begin
      id 5
      name RightLeg
      direction 0.000000 -1.000000 0.000000
      length 16.881075
      axis 0.0 0.0 0.0 xyz
      dof rx ry rz
   end
   begin
      id 6
      name RightFoot
      direction 0.000000 -0.258819 0.965926
      length 5.770812
      axis 15.0 0.0 0.0 xyz
      dof rx ry rz
   end
   begin
      id 7
      name RightToeBase
      direction 0.000000 0.000000 1.000000
      length 2.952750
      axis 0.0 0.0 0.0 xyz
      dof rx ry rz
   end
   begin
      id 8
      name LeftUpLeg
      direction 0.000000 -1.000000 0.000000
      length 18.017682
      axis 0.0 0.0 0.0 xyz
      dof rx ry rz
   end
   begin
      id 9
      name LeftLeg
      direction 0.000000 -1.000000 0.000000
      length 16.881075
      axis 0.0 0.0 0.0 xyz
      dof rx ry rz
   end
   begin
      id 10
      name LeftFoot
      direction 0.000000 -0.258819 0.965926
      length 5.770812
      axis 15.0 0.0 0.0 xyz
      dof rx ry rz
   end
   begin
      id 11
      name LeftToeBase
      direction 0.000000 0.000000 1.000000
      length 2.952750
      axis 0.0 0.0 0.0 xyz
      dof rx ry rz
   end
   begin
      id 12
      name Spine
      direction 0.000000 1.000000 0.000000
      length 0.000000
      axis 0.0 0.0 0.0 xyz
      dof rx ry rz
   end
   begin
      id 13
      name Spine_dum1
      direction 0.000000 1.000000 0.000000
      length 10.941760
      axis 0.0 0.0 0.0 xyz
   end
   begin
      id 14
      name Spine_dum2
      direction 0.000000 1.000000 0.000000
      length 10.941760
      axis 0.0 0.0 0.0 xyz
   end
   begin
      id 15
      name Spine_dum3
      direction 0.000000 1.000000 0.000000
      length 16.646042
      axis 0.0 0.0 0.0 xyz
   end
   begin
      id 16
      name RightShoulder
      direction -1.000000 0.000000 0.000000
      length 7.708937
      axis 0.0 0.0 90.0 xyz
      dof rx ry rz
   end
   begin
      id 17
      name RightArm
      direction -1.000000 0.000000 0.000000
      length 11.521345
      axis 0.0 0.0 90.0 xyz
      dof rx ry rz
   end
   begin
      id 18
      name RightForeArm
      direction -1.000000 0.000000 0.000000
      length 10.175898
      axis 0.0 0.0 90.0 xyz
      dof ry rz rx
   end
   begin
      id 19
      name RightHand
      direction -1.000000 0.000000 0.000000
      length 0.000000
      axis 0.0 0.0 90.0 xyz
      dof rx ry rz
   end
   begin
      id 20
      name RightHand_dum1
      direction -1.000000 0.000000 0.000000
      length 3.937000
      axis 0.0 0.0 90.0 xyz
   end
   begin
      id 21
      name RightHand_dum2
      direction 0.000000 0.000000 0.000000
      length 0.000000
      axis 0.0 0.0 90.0 xyz
   end
   begin
      id 22
      name RightHandThumb1
      direction 0.000000 0.000000 1.000000
      length 3.937000
      axis 0.0 0.0 90.0 xyz
      dof rx rz ry
   end
   begin
      id 23
      name LeftShoulder
      direction 1.000000 0.000000 0.000000
      length 7.708937
      axis 0.0 0.0 -90.0 xyz
      dof rx ry rz
   end
   begin
      id 24
      name LeftArm
      direction 1.000000 0.000000 0.000000
      length 11.521345
      axis 0.0 0.0 -90.0 xyz
      dof rx ry rz
   end
   begin
      id 25
      name LeftForeArm
      direction 1.000000 0.000000 0.000000
      length 10.175898
      axis 0.0 0.0 -90.0 xyz
      dof ry rz rx
   end
   begin
      id 26
      name LeftHand
      direction 1.000000 0.000000 0.000000
      length 0.000000
      axis 0.0 0.0 -90.0 xyz
      dof rx ry rz
   end
   begin
      id 27
      name LeftHand_dum1
      direction 1.000000 0.000000 0.000000
      length 3.937000
      axis 0.0 0.0 -90.0 xyz
   end
   begin
      id 28
      name LeftHand_dum2
      direction 0.000000 0.000000 0.000000
      length 0.000000
      axis 0.0 0.0 -90.0 xyz
   end
   begin
      id 29
      name LeftHandThumb1
      direction 0.000000 0.000000 1.000000
      length 3.937000
      axis 0.0 0.0 -90.0 xyz
      dof rx rz ry
   end
   begin
      id 30
      name Head
      direction 0.000000 1.000000 0.000000
      length 4.527550
      axis 0.0 0.0 0.0 xyz
      dof rx ry rz
   end
:hierarchy
   begin
      root RightUpLeg_dum LeftUpLeg_dum Spine_dum
      RightUpLeg_dum RightUpLeg
      LeftUpLeg_dum LeftUpLeg
      Spine_dum Spine
      RightUpLeg RightLeg
      RightLeg RightFoot
      RightFoot RightToeBase
      LeftUpLeg LeftLeg
      LeftLeg LeftFoot
      LeftFoot LeftToeBase
      Spine Spine_dum1 Spine_dum2 Spine_dum3
      Spine_dum1 RightShoulder
      Spine_dum2 LeftShoulder
      Spine_dum3 Head
      RightShoulder RightArm
      RightArm RightForeArm
      RightForeArm RightHand
      RightHand RightHand_dum1 RightHand_dum2
      RightHand_dum2 RightHandThumb1
      LeftShoulder LeftArm
      LeftArm LeftForeArm
      LeftForeArm LeftHand
      LeftHand LeftHand_dum1 LeftHand_dum2
      LeftHand_dum2 LeftHandThumb1
   end

# File created by Blade
# Date/Time:  Mon Sep 22 16:09:39 2014
# Frame Rate: 120.000 fps
#------------------------------------------------------
:FULLY-SPECIFIED
:DEGREES
1
root 3.298636 37.130961 1.417414 -1.055317 -4.059017 2.258589
RightUpLeg 6.776915 -4.706131 -4.279473
RightLeg -4.211041 -0.000000 0.000000
RightFoot -12.088292 -16.298511 16.602095
RightToeBase 14.269093 -0.000000 -0.000000
LeftUpLeg 4.541957 1.242405 0.154063
LeftLeg -0.370178 -0.000000 0.000000
LeftFoot -9.544167 13.740843 -16.801699
LeftToeBase 9.843171 -0.000000 -0.000000
Spine 3.594167 -3.302547 -1.234735
RightShoulder -2.597077 -13.244156 -25.519668
RightArm 10.621904 25.241649 31.425508
RightForeArm 3.299383 -0.000000 17.785211
RightHand -1.406678 -0.000000 3.925099
RightHandThumb1 -24.326973 -0.000000 -32.862282
LeftShoulder -22.434317 33.283999 14.356284
LeftArm 50.616864 -51.728730 -62.231751
LeftForeArm 42.912042 0.000000 5.573157
LeftHand -15.372032 -0.000000 -12.143676
LeftHandThumb1 -26.253704 0.000000 33.147579
Head -3.525168 13.226235 3.753926
2
root 3.296892 37.131082 1.415948 -1.055510 -4.064606 2.255869
RightUpLeg 6.775386 -4.685913 -4.272100
RightLeg -4.214813 -0.000000 0.000000
RightFoot -12.071099 -16.325419 16.581294
RightToeBase 14.201932 -0.000000 -0.000000
LeftUpLeg 4.537314 1.252931 0.160068
LeftLeg -0.361982 -0.000000 0.000000
LeftFoot -9.542186 13.723665 -16.802225
LeftToeBase 10.022524 -0.000000 -0.000000
Spine 3.603550 -3.294789 -1.235065
RightShoulder -2.595294 -13.281032 -25.453138
RightArm 10.593995 25.271735 31.423620
RightForeArm 3.373586 -0.000000 17.999525
RightHand -1.492003 0.000000 3.939838
RightHandThumb1 -24.326973 -0.000000 -32.862282
LeftShoulder -22.432302 33.283817 14.350486
LeftArm 50.549669 -51.689990 -62.190920
LeftForeArm 42.977589 -0.000000 5.676137
LeftHand -15.423993 0.000000 -11.924004
LeftHandThumb1 -26.253704 0.000000 33.147579
Head -3.581137 13.183905 3.742043
3
root 3.296251 37.131402 1.413295 -1.053733 -4.056502 2.257522
RightUpLeg 6.765472 -4.677799 -4.270526
RightLeg -4.203409 -0.000000 0.000000
RightFoot -12.092062 -16.341556 16.590972
RightToeBase 14.254027 -0.000000 -0.000000
LeftUpLeg 4.524968 1.246461 0.159913
LeftLeg -0.354948 -0.000000 0.000000
LeftFoot -9.530877 13.734051 -16.781634
LeftToeBase 9.819487 -0.000000 -0.000000
Spine 3.609603 -3.300073 -1.231534
RightShoulder -2.572602 -13.278297 -25.407370
RightArm 10.524374 25.311490 31.438659
RightForeArm 3.493522 0.000000 18.241598
RightHand -1.551992 -0.000000 3.829186
RightHandThumb1 -24.326973 -0.000000 -32.862282
LeftShoulder -22.425049 33.291096 14.333130
LeftArm 50.475138 -51.641271 -62.133871
LeftForeArm 43.011124 -0.000000 5.786411
LeftHand -15.467777 -0.000000 -11.869029
LeftHandThumb1 -26.253704 0.000000 33.147579
Head -3.617795 13.197621 3.728482
4
root 3.295509 37.131572 1.411190 -1.051637 -4.059118 2.260227
RightUpLeg 6.755239 -4.667112 -4.272848
RightLeg -4.196701 -0.000000 0.000000
RightFoot -12.084245 -16.336169 16.568975
RightToeBase 14.223263 -0.000000 -0.000000
LeftUpLeg 4.516219 1.248706 0.157920
LeftLeg -0.346619 -0.000000 0.000000
LeftFoot -9.536096 13.737444 -16.786970
LeftToeBase 9.808962 -0.000000 -0.000000
Spine 3.618229 -3.297694 -1.227467
RightShoulder -2.550466 -13.251502 -25.367721
RightArm 10.415957 25.280106 31.440225
RightForeArm 3.794563 -0.000000 18.521429
RightHand -1.530786 -0.000000 3.787141
RightHandThumb1 -24.326973 -0.000000 -32.862282
LeftShoulder -22.439686 33.321433 14.289711
LeftArm 50.371121 -51.559364 -62.036717
LeftForeArm 43.018904 -0.000000 5.955755
LeftHand -15.501366 -0.000000 -11.889394
LeftHandThumb1 -26.253704 0.000000 33.147579
Head -3.671252 13.184771 3.696572
5
root 3.294270 37.131856 1.409477 -1.053695 -4.059738 2.256971
RightUpLeg 6.753640 -4.662064 -4.264546
RightLeg -4.193816 -0.000000 0.000000
RightFoot -12.083707 -16.355591 16.564792
RightToeBase 14.187335 -0.000000 -0.000000
LeftUpLeg 4.515027 1.262030 0.163957
LeftLeg -0.346395 -0.000000 0.000000
LeftFoot -9.531818 13.728596 -16.780401
LeftToeBase 9.837796 -0.000000 -0.000000
Spine 3.630020 -3.300528 -1.227437
RightShoulder -2.526918 -13.272416 -25.319804
RightArm 10.354528 25.356109 31.514722
RightForeArm 3.996826 0.000000 18.857854
RightHand -1.762565 -0.000000 3.803744
RightHandThumb1 -24.326973 -0.000000 -32.862282
LeftShoulder -22.415801 33.320546 14.288300
LeftArm 50.161969 -51.458089 -61.870548
LeftForeArm 42.967713 -0.000000 6.144102
LeftHand -15.560878 -0.000000 -11.731199
LeftHandThumb1 -26.253704 0.000000 33.147579
Head -3.712999 13.192913 3.703358
6
root 3.293312 37.132174 1.407721 -1.051100 -4.061215 2.258496
RightUpLeg 6.743678 -4.647751 -4.262152
RightLeg -4.186654 -0.000000 0.000000
RightFoot -12.092358 -16.369371 16.580397
RightToeBase 14.211401 -0.000000 -0.000000
LeftUpLeg 4.510447 1.258167 0.163448
LeftLeg -0.347683 -0.000000 0.000000
LeftFoot -9.530187 13.732374 -16.791546
LeftToeBase 9.885673 -0.000000 -0.000000
Spine 3.635372 -3.297707 -1.220769
RightShoulder -2.505361 -13.290223 -25.249106
RightArm 10.269916 25.375691 31.528543
RightForeArm 4.178387 0.000000 19.170780
RightHand -1.596378 0.000000 3.462190
RightHandThumb1 -24.326973 -0.000000 -32.862282
LeftShoulder -22.408582 33.346402 14.260391
LeftArm 49.955070 -51.308898 -61.661400
LeftForeArm 42.883300 -0.000000 6.320615
LeftHand -15.680714 -0.000000 -11.696668
LeftHandThumb1 -26.253704 0.000000 33.147579
Head -3.748369 13.183826 3.664236
7
root 3.290132 37.132368 1.404898 -1.041288 -4.070940 2.247380
RightUpLeg 6.723817 -4.632509 -4.242625
RightLeg -4.176282 -0.000000 0.000000
RightFoot -12.094693 -16.378268 16.589768
RightToeBase 14.219256 -0.000000 -0.000000
LeftUpLeg 4.500848 1.268301 0.179387
LeftLeg -0.354445 -0.000000 0.000000
LeftFoot -9.521462 13.735986 -16.792917
LeftToeBase 9.811155 -0.000000 -0.000000
Spine 3.632806 -3.300760 -1.208867
RightShoulder -2.468499 -13.312354 -25.172083
RightArm 10.166952 25.415128 31.550438
RightForeArm 4.578708 -0.000000 19.556935
RightHand -1.528823 -0.000000 3.319748
RightHandThumb1 -24.326973 -0.000000 -32.862282
LeftShoulder -22.408307 33.373711 14.229309
LeftArm 49.798014 -51.207592 -61.550715
LeftForeArm 42.864649 -0.000000 6.540251
LeftHand -15.689429 -0.000000 -11.661001
LeftHandThumb1 -26.253704 0.000000 33.147579
Head -3.778657 13.191314 3.649821
